<svg version="1.2" xmlns="http://www.w3.org/2000/svg" xmlns:xlink="http://www.w3.org/1999/xlink" overflow="visible" preserveAspectRatio="none" viewBox="0 0 12 13" width="12" height="13"><g transform="translate(0, 0)"><g transform="translate(0, 0) rotate(0)"><path style="stroke-width: 0; stroke-linecap: butt; stroke-linejoin: miter; fill: rgb(135, 130, 130);" d="M8.84211,0h-7.57895c-0.69474,0 -1.26316,0.53182 -1.26316,1.18182v8.27273h1.26316v-8.27273h7.57895zM10.73684,2.36364h-6.94737c-0.69474,0 -1.26316,0.53182 -1.26316,1.18182v8.27273c0,0.65 0.56842,1.18182 1.26316,1.18182h6.94737c0.69474,0 1.26316,-0.53182 1.26316,-1.18182v-8.27273c0,-0.65 -0.56842,-1.18182 -1.26316,-1.18182zM10.73684,11.81818h-6.94737v-8.27273h6.94737z" vector-effect="non-scaling-stroke"/></g><defs><path id="path-1678765810476155" d="M8.84211,0h-7.57895c-0.69474,0 -1.26316,0.53182 -1.26316,1.18182v8.27273h1.26316v-8.27273h7.57895zM10.73684,2.36364h-6.94737c-0.69474,0 -1.26316,0.53182 -1.26316,1.18182v8.27273c0,0.65 0.56842,1.18182 1.26316,1.18182h6.94737c0.69474,0 1.26316,-0.53182 1.26316,-1.18182v-8.27273c0,-0.65 -0.56842,-1.18182 -1.26316,-1.18182zM10.73684,11.81818h-6.94737v-8.27273h6.94737z" vector-effect="non-scaling-stroke"/></defs></g></svg>