<svg version="1.2" xmlns="http://www.w3.org/2000/svg" xmlns:xlink="http://www.w3.org/1999/xlink" overflow="visible" preserveAspectRatio="none" viewBox="0 0 28.99999462853984 27.000005" width="28.99999462853984" height="27.000005"><g transform="translate(0, 0)"><g transform="translate(0.000014628539836525345, 0) rotate(0)"><path d="M28.98189,14.56338c0,-3.91791 -2.13697,-7.61729 -5.79517,-9.95866c-0.50708,-0.3434 -1.17714,-0.49949 -1.81099,-0.40584c-0.63385,0.06244 -1.21336,0.35901 -1.57556,0.81168c-0.39842,0.43706 -0.57952,0.99899 -0.47086,1.56092c0.09055,0.54632 0.41653,1.04582 0.94171,1.37361c1.21336,0.76485 2.1913,1.77945 2.86136,2.93453c1.24958,2.16968 1.34013,4.69837 0.25354,6.93048c-0.97793,1.99798 -2.82514,3.59011 -5.14321,4.43301c-2.39051,0.87411 -5.08888,0.87411 -7.47939,0c-2.31807,-0.8429 -4.16528,-2.43503 -5.14321,-4.43301c-1.08659,-2.23211 -0.99604,-4.7608 0.25354,-6.93048c0.65196,-1.17069 1.62989,-2.18529 2.82514,-2.96575c0.52519,-0.32779 0.85117,-0.82729 0.94171,-1.37361c0.10866,-0.56193 -0.07244,-1.12386 -0.47086,-1.56092c-0.3622,-0.45267 -0.94171,-0.76485 -1.57556,-0.82729c-0.63385,-0.07805 -1.30391,0.06244 -1.81099,0.40584c-5.32431,3.41841 -7.22585,9.53722 -4.63614,14.79751c1.44879,3.01257 4.23772,5.40078 7.73293,6.64952c3.58576,1.32678 7.66049,1.32678 11.24625,0c3.49521,-1.24874 6.26603,-3.63694 7.71482,-6.64952c0.76062,-1.5297 1.15903,-3.16867 1.15903,-4.83885v0zM16.1963,0.60876c-0.94171,-0.81168 -2.46295,-0.81168 -3.40466,0c-0.45275,0.39023 -0.70629,0.92094 -0.70629,1.46726v10.39572c0,1.15508 1.08659,2.09163 2.42673,2.09163c1.34013,0 2.42673,-0.93655 2.42673,-2.09163v-10.39572c-0.01811,-0.54632 -0.27165,-1.07703 -0.74251,-1.46726z" style="stroke-width: 0; stroke-linecap: butt; stroke-linejoin: miter; fill: rgb(232, 0, 0);" vector-effect="non-scaling-stroke"/></g><defs><path id="path-16792067891971053" d="M28.98189,14.56338c0,-3.91791 -2.13697,-7.61729 -5.79517,-9.95866c-0.50708,-0.3434 -1.17714,-0.49949 -1.81099,-0.40584c-0.63385,0.06244 -1.21336,0.35901 -1.57556,0.81168c-0.39842,0.43706 -0.57952,0.99899 -0.47086,1.56092c0.09055,0.54632 0.41653,1.04582 0.94171,1.37361c1.21336,0.76485 2.1913,1.77945 2.86136,2.93453c1.24958,2.16968 1.34013,4.69837 0.25354,6.93048c-0.97793,1.99798 -2.82514,3.59011 -5.14321,4.43301c-2.39051,0.87411 -5.08888,0.87411 -7.47939,0c-2.31807,-0.8429 -4.16528,-2.43503 -5.14321,-4.43301c-1.08659,-2.23211 -0.99604,-4.7608 0.25354,-6.93048c0.65196,-1.17069 1.62989,-2.18529 2.82514,-2.96575c0.52519,-0.32779 0.85117,-0.82729 0.94171,-1.37361c0.10866,-0.56193 -0.07244,-1.12386 -0.47086,-1.56092c-0.3622,-0.45267 -0.94171,-0.76485 -1.57556,-0.82729c-0.63385,-0.07805 -1.30391,0.06244 -1.81099,0.40584c-5.32431,3.41841 -7.22585,9.53722 -4.63614,14.79751c1.44879,3.01257 4.23772,5.40078 7.73293,6.64952c3.58576,1.32678 7.66049,1.32678 11.24625,0c3.49521,-1.24874 6.26603,-3.63694 7.71482,-6.64952c0.76062,-1.5297 1.15903,-3.16867 1.15903,-4.83885v0zM16.1963,0.60876c-0.94171,-0.81168 -2.46295,-0.81168 -3.40466,0c-0.45275,0.39023 -0.70629,0.92094 -0.70629,1.46726v10.39572c0,1.15508 1.08659,2.09163 2.42673,2.09163c1.34013,0 2.42673,-0.93655 2.42673,-2.09163v-10.39572c-0.01811,-0.54632 -0.27165,-1.07703 -0.74251,-1.46726z" vector-effect="non-scaling-stroke"/></defs></g></svg>